<?xml version="1.0"?>
<svg xmlns="http://www.w3.org/2000/svg" viewBox="0 0 512 512" width="512px" height="512px"><g id="outline"><path d="M491.864,145h0l-.028-.016-.041-.022L259.864,17a8,8,0,0,0-7.728,0L20.2,144.957l-.041.022-.028.016h0A8,8,0,0,0,16,152V488a8,8,0,0,0,8,8H488a8,8,0,0,0,8-8V152A8,8,0,0,0,491.864,145ZM256,33.137,456.939,144H55.061ZM80,224H432v16H80Zm352-16H80V192H432ZM80,256H432V480H245.132a32.037,32.037,0,0,0,9.855-16H280a8,8,0,0,0,8-8V440H408a8,8,0,0,0,8-8V368a8,8,0,0,0-8-8H352V304a8,8,0,0,0-8-8H288V280a8,8,0,0,0-8-8H248a8,8,0,0,0-8,8v32.861A55.823,55.823,0,0,0,200,296H152a8,8,0,0,0-8,8v56H104a8,8,0,0,0-8,8v80a7.97,7.97,0,0,0,.457,2.645A31.881,31.881,0,0,0,106.868,480H80Zm240,80V312h16v48H288V312h16v24Zm64,64V376h16v48H352V376h16v24Zm-96,24V376h16v24h16V376h16v48Zm-16,24H256V288h16Zm-63.31,3.367a7.912,7.912,0,0,0,.488-1.368,15.8,15.8,0,1,1-.488,1.368ZM240,428.305A31.943,31.943,0,0,0,196.305,440H155.7A31.943,31.943,0,0,0,112,428.305V408h52.686l5.657,5.657A8,8,0,0,0,176,416h64ZM144,456a16,16,0,1,1-31.31-4.633,7.912,7.912,0,0,0,.488-1.368,15.985,15.985,0,0,1,29.643,0,8.01,8.01,0,0,0,.489,1.369A15.942,15.942,0,0,1,144,456Zm40-72h16a8.009,8.009,0,0,1,8,8v8H179.313L160,380.687V352h8a8.009,8.009,0,0,1,8,8v16A8,8,0,0,0,184,384Zm56,16H224v-8a24.028,24.028,0,0,0-24-24h-8v-8a24.028,24.028,0,0,0-24-24h-8V312h40a40.045,40.045,0,0,1,40,40Zm-93.657-10.343L148.686,392H112V376h32v8A8,8,0,0,0,146.343,389.657ZM160,456h32a31.923,31.923,0,0,0,10.868,24H149.132A31.923,31.923,0,0,0,160,456Zm320,24H448V184a8,8,0,0,0-8-8H72a8,8,0,0,0-8,8V480H32V160H480Z" fill="#FF9301"/><rect x="224" y="112" width="64" height="16" fill="#FF9301"/><rect x="224" y="80" width="64" height="16" fill="#FF9301"/></g></svg>
